<svg width="3570" height="954" viewBox="0 0 3570 954" fill="none" xmlns="http://www.w3.org/2000/svg">
<path d="M285.361 5.12891H663.199L726.613 7.75736V215.405L723.971 218.033L311.783 220.662L285.361 233.804L272.15 246.946L261.581 265.346L258.938 278.488V304.772L269.507 328.428L288.003 349.456L306.499 357.341L330.279 359.97L515.235 362.598L568.079 370.484L623.566 388.883L663.199 409.91L694.906 433.566L729.255 467.736L753.035 504.535L768.889 538.705L779.458 572.874L784.742 604.416V688.526L776.815 733.21L763.604 775.265L742.466 817.32L721.328 848.862L692.264 880.403L665.842 901.431L636.777 919.83L599.786 935.601L549.584 948.743L533.73 951.371L459.748 954H44.9179L36.9912 951.371V743.724L39.6334 741.095L462.39 738.467L488.812 727.953L509.95 712.182L523.161 685.898L525.804 672.756V649.099L517.877 622.815L502.023 601.787L486.17 591.274L462.39 583.388L282.718 580.76L237.801 575.503L187.598 562.361L134.754 538.705L97.7625 512.42L66.0557 483.507L42.2757 451.966L26.4223 425.681L10.5689 383.626L2.64223 349.456L0 325.8V267.974L5.28446 231.176L15.8534 194.377L34.349 152.322L52.8446 123.409L73.9824 97.1247L100.405 70.8402L140.038 44.5557L177.029 26.1565L216.663 13.0143L248.37 7.75736L285.361 5.12891Z" fill="#FEFEFE"/>
<path d="M3284.45 0H2906.61L2843.19 2.62845V210.276L2845.84 212.905L3258.02 215.533L3284.45 228.675L3297.66 241.818L3308.23 260.217L3310.87 273.359V299.643L3300.3 323.3L3281.8 344.327L3263.31 352.212L3239.53 354.841L3054.57 357.469L3001.73 365.355L2946.24 383.754L2906.61 404.782L2874.9 428.438L2840.55 462.607L2816.77 499.406L2800.92 533.576L2790.35 567.745L2785.06 599.287V683.397L2792.99 728.081L2806.2 770.136L2827.34 812.191L2848.48 843.733L2877.54 875.274L2903.96 896.302L2933.03 914.701L2970.02 930.472L3020.22 943.614L3036.08 946.242L3110.06 948.871H3524.89L3532.82 946.242V738.595L3530.17 735.966L3107.42 733.338L3080.99 722.824L3059.86 707.053L3046.65 680.769L3044 667.627V643.971L3051.93 617.686L3067.78 596.658L3083.64 586.145L3107.42 578.259L3287.09 575.631L3332.01 570.374L3382.21 557.232L3435.05 533.576L3472.04 507.291L3503.75 478.378L3527.53 446.837L3543.38 420.552L3559.24 378.497L3567.16 344.327L3569.81 320.671V262.845L3564.52 226.047L3553.95 189.248L3535.46 147.193L3516.96 118.28L3495.82 91.9958L3469.4 65.7113L3429.77 39.4268L3392.78 21.0276L3353.14 7.88535L3321.44 2.62845L3284.45 0Z" fill="#FEFEFE"/>
<path d="M859.754 5.12891H1746.12L1749.32 6.73173V298.445L1747.72 300.048H1230.01V360.956H1726.88L1730.09 362.558V593.365L1728.48 594.968H1230.01V654.272L1747.72 655.875L1749.32 657.478V949.191H858.152L856.549 947.589V6.73173L859.754 5.12891Z" fill="white"/>
<path d="M2710.37 5.12891H1824.01L1820.81 6.73173V298.445L1822.41 300.048H2340.12V360.956H1843.25L1840.04 362.558V593.365L1841.64 594.968H2340.12V654.272L1822.41 655.875L1820.81 657.478V949.191H2711.98L2713.58 947.589V6.73173L2710.37 5.12891Z" fill="white"/>
</svg>
